<?xml version="1.0" encoding="UTF-8" standalone="no"?>
<!-- Created with Inkscape (http://www.inkscape.org/) -->

<svg
   xmlns:dc="http://purl.org/dc/elements/1.1/"
   xmlns:cc="http://creativecommons.org/ns#"
   xmlns:rdf="http://www.w3.org/1999/02/22-rdf-syntax-ns#"
   xmlns:svg="http://www.w3.org/2000/svg"
   xmlns="http://www.w3.org/2000/svg"
   xmlns:sodipodi="http://sodipodi.sourceforge.net/DTD/sodipodi-0.dtd"
   xmlns:inkscape="http://www.inkscape.org/namespaces/inkscape"
   sodipodi:docname="megago-logo.svg"
   inkscape:version="0.92.4 5da689c313, 2019-01-14"
   id="svg8"
   version="1.1"
   viewBox="0 0 85.956085 15.119048"
   height="15.119047mm"
   width="85.956085mm"
   inkscape:export-filename="/home/hennings/Nextcloud/PhD/00 - Doku/03 - presentations/20200304-group-update-talk/megago-logo.png"
   inkscape:export-xdpi="299"
   inkscape:export-ydpi="299">
  <defs
     id="defs2">
    <clipPath
       clipPathUnits="userSpaceOnUse"
       id="clipPath4551">
      <rect
         style="fill:#fe0e0e;fill-opacity:1;stroke:#fe0e0e;stroke-width:0.89999998;stroke-miterlimit:4;stroke-dasharray:none;stroke-opacity:1"
         id="rect4553"
         width="87.3125"
         height="20.410715"
         x="74.461304"
         y="77.01786" />
    </clipPath>
    <clipPath
       clipPathUnits="userSpaceOnUse"
       id="clipPath4563">
      <path
         style="fill:none;stroke:#000000;stroke-width:0.26458332px;stroke-linecap:butt;stroke-linejoin:miter;stroke-opacity:1"
         d="M 186.34226,79.134523 58.397312,77.433633 88.824403,101.62411 Z"
         id="path4565"
         inkscape:connector-curvature="0"
         sodipodi:nodetypes="cccc" />
    </clipPath>
  </defs>
  <sodipodi:namedview
     id="base"
     pagecolor="#ffffff"
     bordercolor="#666666"
     borderopacity="1.0"
     inkscape:pageopacity="0.0"
     inkscape:pageshadow="2"
     inkscape:zoom="2.8"
     inkscape:cx="117.21918"
     inkscape:cy="13.75914"
     inkscape:document-units="mm"
     inkscape:current-layer="g4608"
     showgrid="false"
     fit-margin-top="0"
     fit-margin-left="0"
     fit-margin-right="0"
     fit-margin-bottom="0"
     inkscape:window-width="1920"
     inkscape:window-height="1126"
     inkscape:window-x="1919"
     inkscape:window-y="0"
     inkscape:window-maximized="1" />
  <metadata
     id="metadata5">
    <rdf:RDF>
      <cc:Work
         rdf:about="">
        <dc:format>image/svg+xml</dc:format>
        <dc:type
           rdf:resource="http://purl.org/dc/dcmitype/StillImage" />
        <dc:title />
      </cc:Work>
    </rdf:RDF>
  </metadata>
  <g
     inkscape:label="Layer 1"
     inkscape:groupmode="layer"
     id="layer1"
     transform="translate(-84.791256,-119.65588)">
    <g
       id="g4608">
      <path
         inkscape:connector-curvature="0"
         id="path4603"
         d="m 84.791256,121.27029 15.682684,13.50464 70.2734,-13.43664 z"
         style="fill:#c81a1c;fill-opacity:1;stroke:none;stroke-width:0.26499999;stroke-linecap:butt;stroke-linejoin:miter;stroke-miterlimit:4;stroke-dasharray:none;stroke-opacity:1" />
      <path
         style="fill:none;stroke:#000000;stroke-width:0.26458332px;stroke-linecap:butt;stroke-linejoin:miter;stroke-opacity:1"
         d="m 116.18159,92.510996 68.67887,-0.1292 -1.7009,6.95786 -72.69787,7.449974 5.7199,-14.407834"
         id="path820"
         inkscape:connector-curvature="0"
         sodipodi:nodetypes="ccccc" />
      <text
         xml:space="preserve"
         style="font-style:normal;font-weight:normal;font-size:10.58333302px;line-height:1.25;font-family:sans-serif;letter-spacing:0px;word-spacing:0px;fill:#000000;fill-opacity:1;stroke:none;stroke-width:0.26458332"
         x="51.718342"
         y="101.04055"
         id="text855"><tspan
           sodipodi:role="line"
           id="tspan853"
           x="51.718342"
           y="101.04055"
           style="font-style:normal;font-variant:normal;font-weight:bold;font-stretch:normal;font-size:10.58333302px;font-family:sans-serif;-inkscape-font-specification:'sans-serif, Bold';font-variant-ligatures:normal;font-variant-caps:normal;font-variant-numeric:normal;font-feature-settings:normal;text-align:start;writing-mode:lr-tb;text-anchor:start;stroke-width:0.26458332">MEGA-GO</tspan></text>
      <g
         aria-label="MEGA-GO"
         style="font-style:normal;font-weight:normal;font-size:10.58333302px;line-height:1.25;font-family:sans-serif;letter-spacing:0px;word-spacing:0px;fill:#000000;fill-opacity:1;stroke:none;stroke-width:0.26458332"
         id="text855-1"
         transform="translate(0,0.1889881)">
        <path
           d="m 158.39937,121.14259 c -0.76205,0.0159 -1.41077,0.2417 -1.94815,0.68103 -0.54005,0.4443 -0.91884,1.06138 -1.13437,1.84749 -0.21462,0.78278 -0.16532,1.37519 0.1499,1.77349 0.3179,0.39333 0.87275,0.55437 1.66256,0.48685 0.79431,-0.0679 1.46249,-0.32581 2.00253,-0.77004 0.53737,-0.43926 0.8985,-1.02267 1.0854,-1.75396 0.18769,-0.73441 0.12156,-1.29639 -0.19638,-1.68967 -0.31527,-0.39825 -0.8551,-0.59122 -1.62149,-0.57519 0,0 0,0 0,0 m 0.35756,-1.34823 c 1.54278,-0.003 2.6703,0.31361 3.38925,0.93713 0.72791,0.60695 0.96234,1.44773 0.69661,2.53476 -0.265,1.08403 -0.92963,1.97165 -2.00058,2.67528 -1.07985,0.72019 -2.43892,1.17038 -4.07047,1.33815 -1.62695,0.16734 -2.80992,-0.046 -3.5422,-0.65262 -0.71884,-0.6236 -0.89817,-1.56583 -0.54467,-2.81427 0.35448,-1.25189 1.07498,-2.24423 2.15483,-2.9646 1.07525,-0.70383 2.37875,-1.05094 3.91723,-1.05383 0,0 0,0 0,0 m -8.71199,7.45943 c -0.72157,0.30984 -1.4518,0.56348 -2.18997,0.75953 -0.73932,0.1982 -1.48323,0.33659 -2.23088,0.41357 -1.69013,0.17406 -2.90577,-0.0873 -3.63973,-0.7974 -0.72314,-0.73195 -0.85918,-1.80909 -0.41534,-3.21793 0.44881,-1.42462 1.28364,-2.55761 2.49722,-3.38535 1.20387,-0.80961 2.62926,-1.20916 4.28345,-1.21227 0.63853,-0.001 1.23408,0.0486 1.78725,0.14843 0.55826,0.0983 1.06895,0.24333 1.53252,0.43439 -0.15843,0.5469 -0.31686,1.09381 -0.47529,1.64072 -0.47027,-0.23654 -0.95543,-0.41202 -1.45619,-0.52512 -0.49552,-0.1149 -1.01137,-0.16737 -1.54826,-0.15613 -0.99584,0.0209 -1.83837,0.27992 -2.53013,0.78198 -0.68964,0.50445 -1.17675,1.21653 -1.45881,2.13154 -0.27969,0.90734 -0.22849,1.58872 0.15606,2.03956 0.38782,0.44473 1.07876,0.62236 2.07037,0.5375 0.26922,-0.023 0.52209,-0.0572 0.75854,-0.10238 0.24193,-0.049 0.46343,-0.11039 0.66447,-0.18402 0.15582,-0.52658 0.31165,-1.05316 0.46747,-1.57974 -0.52123,0.0339 -1.04247,0.0679 -1.5637,0.10186 0.14344,-0.47745 0.28688,-0.9549 0.43032,-1.43235 1.31853,-0.0638 2.63708,-0.12755 3.95563,-0.19131 -0.365,1.26497 -0.73,2.52995 -1.095,3.79492 m -14.05756,-2.47954 c 1.38467,-0.0756 2.76935,-0.1511 4.15404,-0.22664 -0.1858,0.58337 -0.37161,1.16674 -0.55741,1.75011 -1.39916,0.1026 -2.79831,0.20521 -4.19745,0.30784 0.20027,-0.61044 0.40055,-1.22088 0.60082,-1.83131 m -5.00412,3.25492 c -1.34937,0.11374 -2.69874,0.2275 -4.04809,0.34127 -0.42673,0.63833 -0.85483,1.27921 -1.28429,1.92265 -0.87576,0.0887 -1.75152,0.17749 -2.62727,0.26624 2.45632,-3.59091 4.86913,-7.10023 7.2384,-10.52797 0.98449,-0.004 1.96899,-0.007 2.95349,-0.0111 0.10071,3.23574 0.24498,6.38994 0.43283,9.4626 -0.8758,0.0887 -1.75159,0.17742 -2.62738,0.26613 -0.0139,-0.57076 -0.0265,-1.14405 -0.0377,-1.71986 m -2.75778,-1.59277 c 0.9078,-0.0605 1.8156,-0.121 2.7234,-0.1815 -0.008,-1.28337 -0.009,-2.5787 -0.005,-3.88601 -0.89985,1.3438 -1.80612,2.69964 -2.71881,4.06751 m -6.01702,3.44402 c -0.76706,0.39531 -1.53138,0.71308 -2.29221,0.95194 -0.76198,0.24099 -1.51715,0.40085 -2.26466,0.47797 -1.6898,0.17433 -2.83745,-0.21363 -3.43578,-1.17735 -0.58689,-0.98678 -0.53858,-2.4091 0.13773,-4.25346 0.68389,-1.86502 1.70365,-3.34449 3.05201,-4.42478 1.33868,-1.06212 2.83148,-1.58792 4.48567,-1.59103 0.63853,-0.001 1.22496,0.0657 1.75987,0.19965 0.54002,0.1324 1.02365,0.32807 1.45135,0.58618 -0.25916,0.73528 -0.51832,1.47057 -0.77748,2.20585 -0.42394,-0.32308 -0.87452,-0.56316 -1.35245,-0.71892 -0.47268,-0.15756 -0.97711,-0.23135 -1.51398,-0.22009 -0.9958,0.0209 -1.88031,0.35864 -2.6561,1.01806 -0.77299,0.66061 -1.37961,1.59653 -1.81735,2.80306 -0.43408,1.19642 -0.50211,2.10099 -0.20167,2.70912 0.30371,0.60199 0.95251,0.85819 1.94396,0.77318 0.26917,-0.0231 0.52428,-0.0615 0.76525,-0.1153 0.2471,-0.0588 0.47639,-0.13483 0.68783,-0.22801 0.25033,-0.7034 0.50066,-1.40679 0.75099,-2.11019 -0.52117,0.034 -1.04233,0.068 -1.5635,0.10203 0.2275,-0.63477 0.455,-1.26955 0.6825,-1.90432 1.31841,-0.0639 2.63682,-0.12776 3.95524,-0.19164 -0.59907,1.70268 -1.19815,3.40537 -1.79722,5.10805 m -14.17799,-9.76579 c 2.22851,-0.008 4.45703,-0.0167 6.68554,-0.025 -0.28194,0.76351 -0.56387,1.52702 -0.84581,2.29054 -1.41778,0.0335 -2.83555,0.067 -4.25333,0.10044 -0.2837,0.75637 -0.56741,1.51274 -0.85111,2.26911 1.34673,-0.0568 2.69346,-0.11368 4.0402,-0.17052 -0.28284,0.76519 -0.56567,1.53039 -0.84851,2.29559 -1.36087,0.0834 -2.72174,0.16676 -4.0826,0.25015 -0.34902,0.9305 -0.69804,1.861 -1.04706,2.79151 1.51411,-0.12595 3.02822,-0.2519 4.54233,-0.37783 -0.28143,0.76256 -0.56286,1.52512 -0.84429,2.28769 -2.40083,0.24345 -4.80165,0.48692 -7.20245,0.73041 1.56903,-4.14735 3.13806,-8.2947 4.70709,-12.44205 m -13.113702,0.0491 c 1.050983,-0.004 2.101966,-0.008 3.15295,-0.0118 -0.200936,2.38684 -0.387576,4.74681 -0.559919,7.07991 1.663818,-2.39248 3.313251,-4.75794 4.948311,-7.09636 1.04884,-0.004 2.09768,-0.008 3.14652,-0.0118 -1.61348,4.23085 -3.22695,8.46169 -4.84043,12.69254 -0.823637,0.0835 -1.647275,0.16709 -2.470912,0.25064 1.2115,-3.15346 2.423002,-6.30693 3.634502,-9.46039 -1.64911,2.36159 -3.312786,4.75058 -4.991038,7.16695 -0.546576,0.0456 -1.093152,0.0912 -1.639727,0.13686 0.167165,-2.34427 0.348904,-4.71594 0.545216,-7.11499 -1.29184,3.30446 -2.58368,6.60893 -3.87552,9.91339 -0.825887,0.0838 -1.651773,0.16759 -2.477658,0.25138 1.809235,-4.59877 3.61847,-9.19755 5.427705,-13.79633"
           style="font-style:normal;font-variant:normal;font-weight:bold;font-stretch:normal;font-size:10.58333302px;font-family:sans-serif;-inkscape-font-specification:'sans-serif, Bold';font-variant-ligatures:normal;font-variant-caps:normal;font-variant-numeric:normal;font-feature-settings:normal;text-align:start;writing-mode:lr-tb;text-anchor:start;stroke-width:0.26458332"
           id="path887"
           inkscape:connector-curvature="0" />
      </g>
    </g>
  </g>
</svg>
