<?xml version="1.0" encoding="UTF-8" standalone="no"?>
<svg
   xmlns:dc="http://purl.org/dc/elements/1.1/"
   xmlns:cc="http://creativecommons.org/ns#"
   xmlns:rdf="http://www.w3.org/1999/02/22-rdf-syntax-ns#"
   xmlns:svg="http://www.w3.org/2000/svg"
   xmlns="http://www.w3.org/2000/svg"
   xmlns:sodipodi="http://sodipodi.sourceforge.net/DTD/sodipodi-0.dtd"
   xmlns:inkscape="http://www.inkscape.org/namespaces/inkscape"
   inkscape:version="1.0 (4035a4f, 2020-05-01)"
   height="100.005"
   width="90.379997"
   sodipodi:docname="biological_process.svg"
   id="svg146"
   xml:space="preserve"
   viewBox="0 0 90.379997 100.005"
   y="0px"
   x="0px"
   version="1.1"><metadata
     id="metadata152"><rdf:RDF><cc:Work
         rdf:about=""><dc:format>image/svg+xml</dc:format><dc:type
           rdf:resource="http://purl.org/dc/dcmitype/StillImage" /><dc:title></dc:title></cc:Work></rdf:RDF></metadata><defs
     id="defs150" /><sodipodi:namedview
     inkscape:current-layer="svg146"
     inkscape:window-maximized="0"
     inkscape:window-y="23"
     inkscape:window-x="0"
     inkscape:cy="29.681871"
     inkscape:cx="32.434898"
     inkscape:zoom="5.88"
     fit-margin-bottom="0"
     fit-margin-right="0"
     fit-margin-left="0"
     fit-margin-top="0"
     showgrid="false"
     id="namedview148"
     inkscape:window-height="759"
     inkscape:window-width="1401"
     inkscape:pageshadow="2"
     inkscape:pageopacity="0"
     guidetolerance="10"
     gridtolerance="10"
     objecttolerance="10"
     borderopacity="1"
     bordercolor="#666666"
     pagecolor="#ffffff" /><g
     transform="translate(-4.81,0.005)"
     id="g140"><g
       id="g102"><path
         id="path100"
         d="m 30.86,99.98 c -0.22,0 -0.44,-0.07 -0.63,-0.22 C 13.84,86.47 4.81,68.79 4.81,49.99 c 0,-18.8 9.03,-36.48 25.43,-49.77 0.37,-0.3 0.89,-0.3 1.25,0 9.59,7.78 16.63,16.96 20.91,27.31 0.21,0.51 -0.03,1.09 -0.54,1.3 -0.51,0.21 -1.09,-0.03 -1.3,-0.54 C 46.5,18.48 39.87,9.73 30.86,2.28 15.33,15.12 6.79,32.04 6.8,49.99 c 0,18.19 8.77,35.32 24.69,48.22 0.43,0.35 0.49,0.97 0.15,1.4 -0.2,0.24 -0.49,0.37 -0.78,0.37 z" /></g><g
       id="g106"><path
         id="path104"
         d="m 61.72,79.24 c -7.25,0 -13.15,-5.9 -13.15,-13.16 0,-7.25 5.9,-13.15 13.15,-13.15 7.25,0 13.16,5.9 13.16,13.15 0,7.25 -5.9,13.16 -13.16,13.16 z m 0,-24.33 c -6.16,0 -11.17,5.01 -11.17,11.16 0,6.16 5.01,11.17 11.17,11.17 6.16,0 11.17,-5.01 11.17,-11.17 0,-6.15 -5.01,-11.16 -11.17,-11.16 z" /></g><g
       id="g110"><path
         id="path108"
         d="m 64.2,100 c -0.01,0 -0.01,0 0,0 l -6.27,-0.04 c -0.26,0 -0.52,-0.11 -0.7,-0.3 -0.18,-0.19 -0.29,-0.44 -0.29,-0.71 L 56.98,93 c -1.99,-0.31 -3.94,-0.85 -5.8,-1.59 l -3.01,5.13 c -0.13,0.23 -0.35,0.39 -0.61,0.46 -0.26,0.07 -0.53,0.03 -0.76,-0.1 l -5.4,-3.17 c -0.47,-0.28 -0.63,-0.89 -0.35,-1.36 l 3.01,-5.14 C 42.5,85.96 41.08,84.52 39.84,82.94 l -5.18,2.94 c -0.23,0.13 -0.5,0.16 -0.76,0.09 -0.26,-0.07 -0.47,-0.24 -0.6,-0.47 l -3.09,-5.45 c -0.27,-0.48 -0.1,-1.09 0.38,-1.35 l 5.17,-2.93 c -0.72,-1.88 -1.22,-3.84 -1.5,-5.83 l -5.95,-0.06 c -0.55,0 -0.99,-0.45 -0.99,-1 l 0.06,-6.26 c 0,-0.27 0.11,-0.51 0.3,-0.7 0.19,-0.19 0.41,-0.25 0.71,-0.28 l 5.95,0.06 c 0.32,-1.99 0.86,-3.94 1.61,-5.8 L 30.83,52.87 C 30.6,52.74 30.44,52.52 30.37,52.26 30.3,52 30.34,51.73 30.48,51.51 l 3.19,-5.39 c 0.28,-0.47 0.89,-0.63 1.36,-0.35 l 5.13,3.03 c 1.27,-1.56 2.72,-2.97 4.3,-4.21 L 41.54,39.4 c -0.13,-0.23 -0.16,-0.5 -0.09,-0.76 0.07,-0.26 0.24,-0.47 0.47,-0.6 l 5.46,-3.07 c 0.48,-0.27 1.08,-0.1 1.35,0.38 l 2.92,5.19 c 1.77,-0.67 3.61,-1.15 5.5,-1.43 v -5.96 c 0,-0.55 0.44,-0.99 0.99,-0.99 h 6.26 c 0.55,0 1,0.44 1,0.99 v 5.96 c 2,0.3 3.95,0.82 5.82,1.56 l 2.98,-5.15 c 0.13,-0.23 0.35,-0.4 0.6,-0.46 0.26,-0.07 0.53,-0.03 0.75,0.1 l 5.42,3.14 c 0.23,0.13 0.39,0.35 0.46,0.6 0.07,0.26 0.03,0.53 -0.1,0.76 l -2.98,5.15 c 1.57,1.26 3,2.69 4.25,4.26 l 5.16,-2.96 c 0.23,-0.13 0.5,-0.16 0.75,-0.1 0.25,0.07 0.47,0.24 0.6,0.47 l 3.12,5.43 c 0.28,0.48 0.11,1.08 -0.37,1.36 l -5.16,2.96 c 0.73,1.87 1.24,3.82 1.54,5.82 l 5.96,0.02 c 0.55,0 0.99,0.45 0.99,1 l -0.02,6.26 c 0,0.26 -0.11,0.52 -0.29,0.7 -0.19,0.18 -0.44,0.29 -0.7,0.29 0,0 0,0 0,0 L 88.22,70.3 c -0.31,2 -0.84,3.95 -1.57,5.81 l 5.14,3 c 0.23,0.13 0.39,0.35 0.46,0.61 0.07,0.25 0.03,0.53 -0.1,0.75 L 89,85.88 c -0.28,0.47 -0.89,0.63 -1.36,0.36 l -5.14,-3 c -1.27,1.57 -2.7,2.99 -4.28,4.24 l 2.95,5.17 c 0.27,0.48 0.11,1.08 -0.37,1.36 l -5.44,3.1 C 74.88,97.38 74.28,97.22 74,96.74 l -2.95,-5.17 c -1.87,0.72 -3.82,1.23 -5.83,1.52 l -0.04,5.95 C 65.19,99.56 64.74,100 64.2,100 Z m -5.26,-2.02 4.27,0.03 0.04,-5.83 c 0,-0.5 0.38,-0.93 0.88,-0.98 2.42,-0.27 4.76,-0.88 6.97,-1.82 0.46,-0.2 1,-0.02 1.25,0.42 l 2.88,5.06 3.71,-2.12 -2.89,-5.06 c -0.25,-0.44 -0.13,-0.99 0.27,-1.29 1.94,-1.44 3.66,-3.15 5.12,-5.07 0.3,-0.4 0.86,-0.51 1.29,-0.26 l 5.03,2.93 2.15,-3.69 -5.03,-2.93 c -0.44,-0.26 -0.61,-0.79 -0.41,-1.26 0.95,-2.2 1.59,-4.54 1.88,-6.95 0.06,-0.5 0.49,-0.87 0.99,-0.87 0,0 0,0 0,0 l 5.83,0.02 0.01,-4.27 -5.83,-0.02 c -0.5,0 -0.93,-0.38 -0.98,-0.88 -0.28,-2.41 -0.9,-4.76 -1.84,-6.97 -0.2,-0.46 -0.02,-1 0.42,-1.25 l 5.05,-2.9 -2.13,-3.7 -5.05,2.9 c -0.44,0.25 -0.99,0.13 -1.29,-0.27 -1.44,-1.93 -3.15,-3.65 -5.09,-5.11 -0.4,-0.3 -0.51,-0.86 -0.26,-1.29 l 2.92,-5.04 -3.7,-2.14 -2.92,5.04 c -0.25,0.44 -0.79,0.61 -1.25,0.42 -2.21,-0.95 -4.55,-1.58 -6.96,-1.86 -0.5,-0.06 -0.88,-0.48 -0.88,-0.99 v -5.83 h -4.27 v 5.83 c 0,0.5 -0.38,0.93 -0.88,0.99 -2.31,0.27 -4.55,0.86 -6.67,1.74 -0.46,0.19 -1,0.01 -1.25,-0.43 l -2.86,-5.07 -3.72,2.09 2.86,5.08 c 0.25,0.44 0.13,0.99 -0.28,1.29 -1.95,1.43 -3.68,3.12 -5.15,5.04 -0.31,0.4 -0.86,0.51 -1.3,0.25 l -5.02,-2.97 -2.17,3.68 5.01,2.96 c 0.43,0.26 0.61,0.8 0.41,1.26 -0.97,2.2 -1.62,4.54 -1.93,6.94 -0.07,0.5 -0.49,0.87 -0.99,0.87 0,0 0,0 -0.01,0 l -5.83,-0.06 -0.04,4.27 5.83,0.05 c 0.51,0 0.93,0.38 0.98,0.89 0.26,2.4 0.87,4.75 1.8,6.98 0.19,0.46 0.01,1 -0.43,1.25 l -5.06,2.87 2.1,3.72 5.07,-2.87 c 0.44,-0.25 0.99,-0.13 1.29,0.28 1.43,1.94 3.13,3.67 5.06,5.14 0.4,0.3 0.51,0.86 0.26,1.29 l -2.95,5.03 3.68,2.16 2.95,-5.02 c 0.25,-0.44 0.79,-0.61 1.25,-0.41 2.21,0.96 4.54,1.6 6.95,1.9 0.5,0.06 0.87,0.49 0.87,0.99 z" /></g><g
       id="g114"><path
         id="path112"
         d="m 77.97,24.92 c -3.99,0 -7.24,-3.25 -7.24,-7.24 0,-3.99 3.25,-7.24 7.24,-7.24 3.99,0 7.24,3.25 7.24,7.24 0,4 -3.25,7.24 -7.24,7.24 z m 0,-12.48 c -2.89,0 -5.25,2.36 -5.25,5.25 0,2.89 2.36,5.25 5.25,5.25 2.9,0 5.25,-2.35 5.25,-5.25 0,-2.9 -2.36,-5.25 -5.25,-5.25 z" /></g><g
       id="g118"><path
         id="path116"
         d="m 79.41,34.92 c 0,0 -0.01,0 0,0 L 76.32,34.9 c -0.26,0 -0.52,-0.11 -0.7,-0.3 -0.19,-0.19 -0.29,-0.44 -0.29,-0.7 l 0.01,-2.51 C 74.61,31.25 73.9,31.06 73.21,30.8 l -1.27,2.16 c -0.13,0.23 -0.35,0.39 -0.61,0.46 -0.26,0.07 -0.53,0.03 -0.75,-0.11 l -2.66,-1.56 c -0.23,-0.13 -0.39,-0.35 -0.46,-0.61 -0.07,-0.26 -0.03,-0.53 0.1,-0.75 l 1.27,-2.16 c -0.56,-0.48 -1.08,-1.01 -1.55,-1.58 l -2.18,1.24 c -0.48,0.27 -1.09,0.1 -1.35,-0.38 l -1.52,-2.68 c -0.13,-0.23 -0.16,-0.5 -0.09,-0.76 0.07,-0.25 0.24,-0.47 0.47,-0.6 l 2.18,-1.24 c -0.24,-0.7 -0.42,-1.41 -0.55,-2.15 l -2.51,-0.02 c -0.26,0 -0.51,-0.11 -0.7,-0.3 -0.19,-0.19 -0.29,-0.44 -0.29,-0.71 l 0.03,-3.09 c 0,-0.26 0.11,-0.51 0.3,-0.7 0.19,-0.18 0.47,-0.29 0.7,-0.28 L 64.28,15 c 0.14,-0.73 0.34,-1.44 0.59,-2.13 L 62.71,11.59 C 62.24,11.31 62.08,10.7 62.36,10.23 L 63.93,7.57 C 64.07,7.34 64.28,7.18 64.54,7.11 64.8,7.04 65.07,7.08 65.29,7.22 L 67.45,8.5 C 67.94,7.94 68.46,7.42 69.03,6.95 L 67.8,4.78 C 67.53,4.3 67.7,3.7 68.18,3.43 l 2.69,-1.51 c 0.48,-0.27 1.09,-0.1 1.35,0.38 l 1.23,2.18 C 74.1,4.26 74.76,4.09 75.43,3.97 V 1.46 c 0,-0.55 0.45,-0.99 0.99,-0.99 h 3.08 c 0.55,0 0.99,0.45 0.99,0.99 v 2.51 c 0.73,0.13 1.45,0.32 2.14,0.57 l 1.25,-2.17 c 0.13,-0.23 0.35,-0.39 0.6,-0.46 0.25,-0.07 0.53,-0.03 0.76,0.1 l 2.67,1.55 c 0.47,0.28 0.64,0.88 0.36,1.36 l -1.25,2.17 c 0.56,0.48 1.09,1.01 1.56,1.57 l 2.18,-1.25 c 0.48,-0.27 1.08,-0.11 1.36,0.37 l 1.54,2.67 c 0.27,0.48 0.11,1.09 -0.37,1.36 l -2.17,1.25 c 0.24,0.7 0.43,1.41 0.57,2.14 l 2.51,0.01 c 0.26,0 0.52,0.1 0.7,0.29 0.19,0.19 0.29,0.44 0.29,0.7 l -0.01,3.09 c 0,0.55 -0.45,0.99 -0.99,0.99 0,0 0,0 0,0 L 91.68,20.27 C 91.54,21 91.35,21.71 91.1,22.41 l 2.17,1.26 c 0.47,0.28 0.63,0.89 0.36,1.36 l -1.55,2.66 c -0.28,0.48 -0.88,0.63 -1.36,0.36 l -2.17,-1.26 c -0.48,0.56 -1.01,1.08 -1.57,1.56 l 1.24,2.18 c 0.27,0.48 0.11,1.08 -0.37,1.36 l -2.68,1.53 c -0.48,0.27 -1.08,0.1 -1.36,-0.37 l -1.24,-2.18 c -0.7,0.24 -1.41,0.43 -2.14,0.56 l -0.02,2.51 c -0.01,0.54 -0.46,0.98 -1,0.98 z m -2.09,-2 1.1,0.01 0.02,-2.37 c 0,-0.5 0.38,-0.93 0.88,-0.98 1.14,-0.13 2.25,-0.42 3.3,-0.86 0.46,-0.2 1,-0.02 1.25,0.42 l 1.17,2.05 0.95,-0.54 -1.17,-2.06 c -0.25,-0.44 -0.13,-0.99 0.27,-1.29 0.92,-0.68 1.73,-1.49 2.42,-2.4 0.3,-0.4 0.86,-0.51 1.29,-0.26 l 2.05,1.19 0.55,-0.95 -2.05,-1.19 c -0.43,-0.25 -0.61,-0.79 -0.41,-1.26 0.45,-1.04 0.75,-2.15 0.89,-3.29 0.06,-0.5 0.49,-0.87 0.99,-0.87 0,0 0,0 0,0 l 2.37,0.01 v -1.1 l -2.37,-0.01 c -0.51,0 -0.93,-0.38 -0.99,-0.88 C 89.7,15.15 89.41,14.04 88.96,13 88.76,12.54 88.94,12 89.38,11.75 L 91.43,10.57 90.9,9.62 88.85,10.8 C 88.41,11.05 87.86,10.94 87.56,10.53 86.88,9.61 86.07,8.8 85.15,8.12 84.75,7.82 84.64,7.26 84.89,6.83 L 86.07,4.78 85.12,4.23 83.94,6.28 C 83.69,6.72 83.15,6.89 82.69,6.7 81.65,6.25 80.54,5.96 79.4,5.82 78.9,5.76 78.52,5.34 78.52,4.83 V 2.45 h -1.1 v 2.37 c 0,0.5 -0.38,0.93 -0.88,0.99 -1.09,0.13 -2.15,0.41 -3.15,0.82 -0.46,0.19 -1,0.01 -1.25,-0.43 l -1.16,-2.06 -0.96,0.54 1.16,2.06 c 0.25,0.44 0.13,0.99 -0.28,1.29 -0.92,0.67 -1.74,1.48 -2.44,2.38 -0.31,0.4 -0.86,0.51 -1.3,0.25 l -2.04,-1.21 -0.56,0.94 2.04,1.2 c 0.43,0.26 0.61,0.8 0.4,1.26 -0.46,1.04 -0.76,2.15 -0.91,3.28 -0.06,0.5 -0.53,0.86 -1,0.87 h -2.35 l -0.01,1.1 2.37,0.02 c 0.51,0 0.93,0.38 0.98,0.88 0.13,1.14 0.41,2.26 0.85,3.3 0.19,0.46 0.01,1 -0.43,1.25 l -2.06,1.16 0.54,0.95 2.06,-1.17 c 0.44,-0.25 0.99,-0.13 1.29,0.28 0.68,0.92 1.48,1.74 2.39,2.43 0.4,0.31 0.51,0.86 0.26,1.29 l -1.2,2.04 0.95,0.55 1.2,-2.04 c 0.26,-0.44 0.8,-0.61 1.26,-0.41 1.04,0.46 2.15,0.76 3.28,0.9 0.5,0.06 0.88,0.49 0.87,0.99 z" /></g><g
       id="g122"><path
         id="path120"
         d="m 30.86,42.43 c -0.55,0 -1,-0.44 -1,-0.99 V 0.99 c 0,-0.55 0.45,-0.99 1,-0.99 0.55,0 0.99,0.45 0.99,0.99 v 40.44 c 0,0.55 -0.44,1 -0.99,1 z" /></g><g
       id="g126"><path
         id="path124"
         d="m 30.86,28.15 c -0.26,0 -0.51,-0.1 -0.7,-0.29 L 17.32,15.02 c -0.39,-0.39 -0.39,-1.02 0,-1.41 0.39,-0.39 1.02,-0.39 1.41,0 l 12.83,12.83 c 0.39,0.39 0.39,1.02 0,1.41 -0.19,0.2 -0.45,0.3 -0.7,0.3 z" /></g><g
       id="g130"><path
         id="path128"
         d="m 30.86,28.15 c -0.26,0 -0.51,-0.1 -0.7,-0.29 -0.39,-0.39 -0.39,-1.02 0,-1.41 l 12.8,-12.8 c 0.39,-0.39 1.02,-0.39 1.41,0 0.39,0.39 0.39,1.02 0,1.41 l -12.8,12.8 c -0.2,0.19 -0.46,0.29 -0.71,0.29 z" /></g><g
       id="g134"><path
         id="path132"
         d="m 25.75,50.39 c -0.25,0 -0.51,-0.1 -0.7,-0.29 L 7.91,32.96 c -0.39,-0.39 -0.39,-1.02 0,-1.41 0.39,-0.39 1.02,-0.39 1.41,0 l 17.14,17.14 c 0.39,0.39 0.39,1.02 0,1.41 -0.2,0.19 -0.46,0.29 -0.71,0.29 z" /></g><g
       id="g138"><path
         id="path136"
         d="m 21.63,69.98 c -0.26,0 -0.51,-0.1 -0.7,-0.29 L 5.15,53.92 c -0.39,-0.39 -0.39,-1.02 0,-1.41 0.39,-0.39 1.02,-0.39 1.41,0 l 15.77,15.77 c 0.39,0.39 0.39,1.02 0,1.41 -0.19,0.2 -0.45,0.29 -0.7,0.29 z" /></g></g></svg>
