<?xml version="1.0" encoding="UTF-8" standalone="no"?>
<svg
   xmlns:dc="http://purl.org/dc/elements/1.1/"
   xmlns:cc="http://creativecommons.org/ns#"
   xmlns:rdf="http://www.w3.org/1999/02/22-rdf-syntax-ns#"
   xmlns:svg="http://www.w3.org/2000/svg"
   xmlns="http://www.w3.org/2000/svg"
   xmlns:sodipodi="http://sodipodi.sourceforge.net/DTD/sodipodi-0.dtd"
   xmlns:inkscape="http://www.inkscape.org/namespaces/inkscape"
   inkscape:version="1.0 (4035a4f, 2020-05-01)"
   height="60.006947"
   width="60.008743"
   sodipodi:docname="cellular_component.svg"
   id="svg296"
   version="1.1"
   y="0px"
   x="0px"
   viewBox="0 0 60.008743 60.006947">
  <metadata
     id="metadata302">
    <rdf:RDF>
      <cc:Work
         rdf:about="">
        <dc:format>image/svg+xml</dc:format>
        <dc:type
           rdf:resource="http://purl.org/dc/dcmitype/StillImage" />
        <dc:title></dc:title>
      </cc:Work>
    </rdf:RDF>
  </metadata>
  <defs
     id="defs300" />
  <sodipodi:namedview
     inkscape:current-layer="svg296"
     inkscape:window-maximized="0"
     inkscape:window-y="23"
     inkscape:window-x="0"
     inkscape:cy="38"
     inkscape:cx="30"
     inkscape:zoom="9.1875"
     fit-margin-bottom="0"
     fit-margin-right="0"
     fit-margin-left="0"
     fit-margin-top="0"
     showgrid="false"
     id="namedview298"
     inkscape:window-height="973"
     inkscape:window-width="1320"
     inkscape:pageshadow="2"
     inkscape:pageopacity="0"
     guidetolerance="10"
     gridtolerance="10"
     objecttolerance="10"
     borderopacity="1"
     bordercolor="#666666"
     pagecolor="#ffffff" />
  <g
     transform="translate(-2,-2)"
     id="g290">
    <path
       id="path256"
       d="M 14.626,5.9458 13.374,4.38623 C 6.03906,10.27734 2,19.8916 2,31.458 H 4 C 4,20.50977 7.77344,11.44922 14.626,5.9458 Z" />
    <path
       id="path258"
       d="m 9.25586,52.46631 c 3.06445,3.19433 7.00195,5.79834 12.76758,8.44287 l 0.834,-1.81836 c -5.52637,-2.53418 -9.27637,-5.00439 -12.1582,-8.00928 z" />
    <path
       id="path260"
       d="m 56.80469,8.37793 -1.56641,1.24414 q 0.35742,0.45043 0.69238,0.91943 c 4.36719,6.11914 5.25684,13.89405 2.50586,21.89209 -0.93652,2.72168 -1.76074,5.66309 -2.56738,8.53809 -1.77637,6.335 -3.61328,12.88574 -6.95215,17.43652 l 1.61328,1.1836 C 54.084,54.74756 55.9707,48.019 57.80371,41.48145 c 0.79,-2.8169 1.60645,-5.73047 2.52344,-8.39747 2.96777,-8.626 1.98437,-17.04443 -2.76856,-23.70507 Q 57.19385,8.8684 56.80469,8.37793 Z" />
    <path
       id="path262"
       d="m 38.38379,62.00635 a 10.32487,10.32487 0 0 0 4.7998,-1.12549 c 5.87207,-3.0166 8.2461,-11.4834 10.75977,-20.44775 0.80762,-2.88282 1.64355,-5.86329 2.60156,-8.64991 C 59.08008,24.41309 58.28418,17.28174 54.30371,11.70264 49.90332,5.53662 42.10938,2 32.91992,2 16.56641,2 6,13.563 6,31.458 6,48.35546 14.19922,54.18358 32.5791,60.85644 a 17.09983,17.09983 0 0 0 5.80469,1.14991 z M 8,31.458 C 8,11.21338 20.87305,4 32.91992,4 c 8.53516,0 15.73535,3.231 19.75586,8.86475 3.59473,5.03808 4.29688,11.52587 1.97852,18.26806 -0.97754,2.84131 -1.82129,5.8501 -2.63672,8.76026 -2.39258,8.53222 -4.65235,16.59131 -9.748,19.209 -2.41308,1.23975 -5.35937,1.19922 -9.00879,-0.12549 C 15.44727,52.50879 8,47.25586 8,31.458 Z" />
    <path
       id="path264"
       d="m 18,24 a 8,8 0 1 0 8,8 8.00917,8.00917 0 0 0 -8,-8 z m 0,14 a 6,6 0 1 1 6,-6 6.00657,6.00657 0 0 1 -6,6 z" />
    <path
       id="path266"
       d="m 18,29 a 3,3 0 1 0 3,3 3.00328,3.00328 0 0 0 -3,-3 z m 0,4 a 1,1 0 1 1 1,-1 1.001,1.001 0 0 1 -1,1 z" />
    <path
       id="path268"
       d="m 27.90723,9.09326 c -1.71289,-1.7124 -4.85938,-1.355 -7.01368,0.79981 a 6.34845,6.34845 0 0 0 -1.84277,3.53076 3.98809,3.98809 0 0 0 1.042,3.48291 3.857,3.857 0 0 0 2.77832,1.083 6.13023,6.13023 0 0 0 4.23536,-1.88282 6.35159,6.35159 0 0 0 1.84277,-3.53076 3.98809,3.98809 0 0 0 -1.042,-3.4829 z m -0.9375,3.19971 a 4.34591,4.34591 0 0 1 -1.27735,2.3999 c -1.35156,1.35059 -3.26758,1.71826 -4.18554,0.79981 a 2.04655,2.04655 0 0 1 -0.47657,-1.78565 4.34591,4.34591 0 0 1 1.27735,-2.3999 4.18992,4.18992 0 0 1 2.82031,-1.30613 1.88348,1.88348 0 0 1 1.36523,0.50634 2.04655,2.04655 0 0 1 0.47657,1.78566 z" />
    <rect
       id="rect270"
       transform="rotate(-45,23.999995,12.999997)"
       height="2.8284299"
       width="1.99979"
       y="11.58579"
       x="23.000111" />
    <path
       id="path272"
       d="m 36,24 c 2.206,0 4,-2.24316 4,-5 0,-2.75684 -1.794,-5 -4,-5 -2.206,0 -4,2.24316 -4,5 0,2.75684 1.794,5 4,5 z M 34.12726,18 C 34.40967,16.85028 35.14948,16 36,16 c 1.084,0 2,1.374 2,3 0,1.626 -0.916,3 -2,3 -0.85052,0 -1.59033,-0.85028 -1.87274,-2 H 36 v -2 z" />
    <path
       id="path274"
       d="m 37,46 c -1.68262,0 -3,1.75684 -3,4 0,2.24316 1.31738,4 3,4 1.68262,0 3,-1.75684 3,-4 0,-2.24316 -1.31738,-4 -3,-4 z m 0,6 c -0.4082,0 -1,-0.7793 -1,-2 0,-1.2207 0.5918,-2 1,-2 0.4082,0 1,0.7793 1,2 0,1.2207 -0.5918,2 -1,2 z" />
    <path
       id="path276"
       d="m 16.62891,42.62891 c -1.01856,1.019 -0.77442,2.85839 0.55468,4.1875 a 3.76647,3.76647 0 0 0 2.58789,1.1831 2.21337,2.21337 0 0 0 1.59961,-0.62842 c 1.01856,-1.019 0.77442,-2.85839 -0.55468,-4.1875 -1.33106,-1.33105 -3.1709,-1.57324 -4.1875,-0.55468 z M 19.957,45.957 c -0.09961,0.09863 -0.74121,0.0625 -1.35937,-0.55469 -0.61719,-0.61767 -0.6543,-1.25927 -0.55469,-1.35937 a 0.26783,0.26783 0 0 1 0.17578,-0.04248 1.82569,1.82569 0 0 1 1.18359,0.59717 c 0.61722,0.6177 0.65433,1.2593 0.55469,1.35937 z" />
    <path
       id="path278"
       d="M 36,29 V 41 A 3.00035,3.00035 0 0 0 40.10547,43.78906 3.00009,3.00009 0 0 0 46,43 V 41.82861 A 3.00044,3.00044 0 0 0 50,39 V 27 a 3,3 0 0 0 -6,0 v 1.17139 A 3.08922,3.08922 0 0 0 41.89453,28.21094 3.00009,3.00009 0 0 0 36,29 Z m 4,0 v 5 h 2 v -3 a 1,1 0 0 1 2,0 v 3 h 2 v -7 a 1,1 0 0 1 2,0 v 12 a 1,1 0 0 1 -2,0 v -1 h -2 v 5 a 1,1 0 0 1 -2,0 v -5 h -2 v 3 a 1,1 0 0 1 -2,0 V 29 a 1,1 0 0 1 2,0 z" />
    <rect
       id="rect280"
       height="2"
       width="2"
       y="10"
       x="46" />
    <rect
       id="rect282"
       height="2"
       width="2"
       y="16"
       x="42" />
    <rect
       id="rect284"
       height="2"
       width="2"
       y="38"
       x="28" />
    <circle
       id="circle286"
       r="2"
       cy="54"
       cx="30" />
    <circle
       id="circle288"
       r="2"
       cy="22"
       cx="30" />
  </g>
</svg>
