<?xml version="1.0" encoding="UTF-8" standalone="no"?>
<svg
   xmlns:dc="http://purl.org/dc/elements/1.1/"
   xmlns:cc="http://creativecommons.org/ns#"
   xmlns:rdf="http://www.w3.org/1999/02/22-rdf-syntax-ns#"
   xmlns:svg="http://www.w3.org/2000/svg"
   xmlns="http://www.w3.org/2000/svg"
   xmlns:sodipodi="http://sodipodi.sourceforge.net/DTD/sodipodi-0.dtd"
   xmlns:inkscape="http://www.inkscape.org/namespaces/inkscape"
   inkscape:version="1.0 (4035a4f, 2020-05-01)"
   height="90.000038"
   width="94.000008"
   sodipodi:docname="molecular_function.svg"
   id="svg425"
   viewBox="0 0 94.000008 90.000038"
   y="0px"
   x="0px"
   version="1.1">
  <metadata
     id="metadata431">
    <rdf:RDF>
      <cc:Work
         rdf:about="">
        <dc:format>image/svg+xml</dc:format>
        <dc:type
           rdf:resource="http://purl.org/dc/dcmitype/StillImage" />
        <dc:title></dc:title>
      </cc:Work>
    </rdf:RDF>
  </metadata>
  <defs
     id="defs429" />
  <sodipodi:namedview
     inkscape:current-layer="svg425"
     inkscape:window-maximized="0"
     inkscape:window-y="23"
     inkscape:window-x="0"
     inkscape:cy="57.50002"
     inkscape:cx="47.000003"
     inkscape:zoom="5.88"
     fit-margin-bottom="0"
     fit-margin-right="0"
     fit-margin-left="0"
     fit-margin-top="0"
     showgrid="false"
     id="namedview427"
     inkscape:window-height="881"
     inkscape:window-width="1355"
     inkscape:pageshadow="2"
     inkscape:pageopacity="0"
     guidetolerance="10"
     gridtolerance="10"
     objecttolerance="10"
     borderopacity="1"
     bordercolor="#666666"
     pagecolor="#ffffff" />
  <g
     id="g419"
     transform="translate(-2.9999975,-957.36216)">
    <path
       id="path417"
       overflow="visible"
       display="inline"
       visibility="visible"
       marker="none"
       stroke="none"
       fill-opacity="1"
       fill="#000000"
       d="m 58.999997,957.36217 c -5.4992,0 -10,4.50083 -10,10 0,3.47641 1.7875,6.58141 4.5,8.375 l -4.5625,15.18753 c -1.259299,-0.345 -2.571399,-0.56253 -3.9375,-0.56253 -4.448099,0 -8.4363,1.96903 -11.1875,5.06253 l -12.5625,-11.75003 c 1.097901,-1.49181 1.75,-3.33063 1.75,-5.3125 0,-4.94688 -4.0531,-9 -9,-9 -4.9468995,0 -8.9999995,4.05312 -8.9999995,9 0,4.94688 4.0531,9 8.9999995,9 1.5214,0 2.9583,-0.3877 4.2188,-1.0625 l 13.3437,12.50003 c -0.9807,1.9918 -1.5625,4.1996 -1.5625,6.5625 0,3.407 1.167,6.5391 3.0938,9.0625 l -11.1563,11.1875 c -1.9647,-1.4048 -4.3502,-2.25 -6.9375,-2.25 -6.6036995,0 -11.9999995,5.3962 -11.9999995,12 0,6.6037 5.3963,12 11.9999995,12 6.603701,0 12,-5.3963 12,-12 0,-2.5874 -0.8452,-4.9728 -2.25,-6.9375 l 11.1562,-11.1563 c 2.5283,1.9402 5.6737,3.0938 9.0938,3.0938 5.091701,0 9.5987,-2.5698 12.3125,-6.4688 l 13.875001,4.5938 c -0.109101,0.6189 -0.1875,1.226 -0.1875,1.875 0,6.0514 4.9485,11 11.000004,11 6.0515,0 11,-4.9486 11,-11 0,-6.0515 -4.9485,-11 -11,-11 -4.0041,0 -7.513205,2.1872 -9.437504,5.4062 l -13.406301,-4.4687 c 0.5392,-1.5434 0.8438,-3.2144 0.8438,-4.9375 0,-1.4041 -0.23,-2.7408 -0.5938,-4.0313 l 24.250006,-12.99999 c 1.418299,1.27266 3.303299,2.03125 5.343799,2.03125 4.3946,0 8,-3.60541 8,-8 0,-4.39459 -3.6054,-8 -8,-8 -4.3946,0 -8,3.60541 -8,8 0,0.91669 0.1806,1.80255 0.468801,2.625 L 57.812497,997.6434 c -1.2813,-2.1132 -3.063599,-3.89111 -5.1875,-5.1562 l 4.5938,-15.28129 c 0.580601,0.10599 1.1712,0.15625 1.7812,0.15625 5.499201,0 10.000001,-4.50082 10.000001,-10 0,-5.49917 -4.5008,-10 -10.000001,-10 z m 0,4 c 3.337401,0 6.000001,2.66257 6.000001,6 0,3.33743 -2.6626,6 -6.000001,6 -3.3374,0 -6,-2.66257 -6,-6 0,-3.33743 2.6626,-6 6,-6 z m -45,12 c 2.7851,0 5,2.21488 5,5 0,2.78512 -2.2149,5 -5,5 -2.7851,0 -4.9999995,-2.21488 -4.9999995,-5 0,-2.78512 2.2148995,-5 4.9999995,-5 z m 75.000005,5 c 2.2328,0 4,1.76719 4,4 0,2.23281 -1.7672,4 -4,4 -2.2328,0 -4,-1.76719 -4,-4 0,-2.23281 1.7672,-4 4,-4 z M 44.999997,994.3622 c 6.0988,0 11,4.9011 11,11 0,6.0988 -4.9012,11 -11,11 -6.098799,0 -11,-4.9012 -11,-11 0,-6.0989 4.901201,-11 11,-11 z m 37.000005,19 c 3.8897,0 7,3.1102 7,7 0,3.8897 -3.1103,7 -7,7 -3.8897,0 -7.000004,-3.1103 -7.000004,-7 0,-3.8898 3.110304,-7 7.000004,-7 z m -67.000005,14 c 4.441901,0 8,3.558 8,8 0,4.4419 -3.5581,8 -8,8 -4.4419,0 -7.9999995,-3.5581 -7.9999995,-8 0,-4.442 3.5581005,-8 7.9999995,-8 z"
       style="color:#000000;text-indent:0;text-transform:none;direction:ltr;baseline-shift:baseline;enable-background:accumulate" />
  </g>
</svg>
